<svg width="24" height="18" viewBox="0 0 24 18" fill="none" xmlns="http://www.w3.org/2000/svg">
<path fill-rule="evenodd" clip-rule="evenodd" d="M0.916585 1.41671V11.9167H0.333252V14.25C0.333252 14.7172 0.722046 14.8334 0.916585 14.8334H1.55831C1.82861 16.1652 3.00553 17.1667 4.41658 17.1667C5.82764 17.1667 7.00456 16.1652 7.27486 14.8334H15.5583C15.8286 16.1652 17.0055 17.1667 18.4166 17.1667C19.8276 17.1667 21.0046 16.1652 21.2749 14.8334H22.4999C23.1442 14.8334 23.6666 14.3116 23.6666 13.6667V11.9167C23.2 11.9167 23.0833 11.5282 23.0833 11.3334L20.4432 3.94145C20.2774 3.4766 19.8382 3.16671 19.3451 3.16671H15.4999C15.0334 3.16671 14.9166 2.7782 14.9166 2.58337V1.41671C14.9166 1.17517 14.8129 1.02706 14.6859 0.94161C14.5668 0.860718 14.4272 0.833374 14.3333 0.833374H1.49992C1.03337 0.833374 0.916585 1.22188 0.916585 1.41671ZM14.9166 4.33337H19.5833L21.3333 9.00004H14.9166V4.33337ZM4.41658 16C5.38302 16 6.16658 15.2162 6.16658 14.25C6.16658 13.2839 5.38302 12.5 4.41658 12.5C3.45015 12.5 2.66659 13.2839 2.66659 14.25C2.66659 15.2162 3.45015 16 4.41658 16ZM18.4166 16C19.383 16 20.1666 15.2162 20.1666 14.25C20.1666 13.2839 19.383 12.5 18.4166 12.5C17.4502 12.5 16.6666 13.2839 16.6666 14.25C16.6666 15.2162 17.4502 16 18.4166 16Z" fill="white"/>
</svg>
