<svg width="28" height="28" viewBox="0 0 28 28" fill="none" xmlns="http://www.w3.org/2000/svg">
<g clip-path="url(#clip0_187_2631)">
<path d="M19.2273 2.33301H8.77227C5.2218 2.33301 2.33325 5.22169 2.33325 8.77216V19.2272C2.33325 22.7778 5.2218 25.6663 8.77227 25.6663H19.2273C22.778 25.6663 25.6666 22.7777 25.6666 19.2272V8.77216C25.6667 5.22169 22.778 2.33301 19.2273 2.33301ZM23.5965 19.2272C23.5965 21.6363 21.6365 23.5961 19.2274 23.5961H8.77227C6.36333 23.5962 4.4035 21.6363 4.4035 19.2272V8.77216C4.4035 6.36322 6.36333 4.40325 8.77227 4.40325H19.2273C21.6364 4.40325 23.5963 6.36322 23.5963 8.77216L23.5965 19.2272Z" fill="#E7E7E7"/>
<path d="M14 7.98709C10.6847 7.98709 7.98757 10.6842 7.98757 13.9995C7.98757 17.3147 10.6847 20.0116 14 20.0116C17.3153 20.0116 20.0124 17.3147 20.0124 13.9995C20.0124 10.6842 17.3153 7.98709 14 7.98709ZM14 17.9412C11.8264 17.9412 10.0578 16.173 10.0578 13.9994C10.0578 11.8256 11.8262 10.0572 14 10.0572C16.1737 10.0572 17.9421 11.8256 17.9421 13.9994C17.9421 16.173 16.1736 17.9412 14 17.9412Z" fill="#E7E7E7"/>
<path d="M20.2645 6.23253C19.8657 6.23253 19.4738 6.39401 19.1921 6.67694C18.9091 6.9585 18.7463 7.35046 18.7463 7.75071C18.7463 8.14972 18.9092 8.54154 19.1921 8.82448C19.4737 9.10603 19.8657 9.26889 20.2645 9.26889C20.6648 9.26889 21.0554 9.10603 21.3383 8.82448C21.6212 8.54154 21.7827 8.14958 21.7827 7.75071C21.7827 7.35046 21.6212 6.9585 21.3383 6.67694C21.0567 6.39401 20.6648 6.23253 20.2645 6.23253Z" fill="#E7E7E7"/>
</g>
<defs>
<clipPath id="clip0_187_2631">
<rect width="28" height="28" fill="white"/>
</clipPath>
</defs>
</svg>
