<svg width="28" height="28" viewBox="0 0 28 28" fill="none" xmlns="http://www.w3.org/2000/svg">
<g clip-path="url(#clip0_187_2637)">
<path d="M5.1629 2.33301C3.45192 2.33301 2.33325 3.45652 2.33325 4.93323C2.33325 6.37732 3.4186 7.53288 5.09725 7.53288H5.12972C6.87417 7.53288 7.9598 6.37732 7.9598 4.93323C7.92718 3.45652 6.87417 2.33301 5.1629 2.33301Z" fill="#E7E7E7"/>
<path d="M2.6289 9.58709H7.63082V24.6355H2.6289V9.58709Z" fill="#E7E7E7"/>
<path d="M19.9082 9.23497C17.2098 9.23497 15.4004 11.7705 15.4004 11.7705V9.58816H10.3984V24.6366H15.4001V16.233C15.4001 15.7831 15.4328 15.3339 15.5649 15.0122C15.9265 14.1138 16.7494 13.1832 18.1312 13.1832C19.9412 13.1832 20.6651 14.5632 20.6651 16.5862V24.6366H25.6666V16.0081C25.6666 11.3859 23.1988 9.23497 19.9082 9.23497Z" fill="#E7E7E7"/>
</g>
<defs>
<clipPath id="clip0_187_2637">
<rect width="28" height="28" fill="white"/>
</clipPath>
</defs>
</svg>
