<svg width="22" height="22" viewBox="0 0 22 22" fill="none" xmlns="http://www.w3.org/2000/svg">
<path d="M19.435 14.8034L16.4717 14.4651C15.76 14.3834 15.06 14.6284 14.5584 15.1301L12.4117 17.2767C9.11005 15.5967 6.40338 12.9017 4.72338 9.58838L6.88171 7.43005C7.38338 6.92838 7.62838 6.22838 7.54671 5.51672L7.20838 2.57672C7.06838 1.39839 6.07671 0.511719 4.88671 0.511719H2.86838C1.55005 0.511719 0.453381 1.60839 0.535047 2.92672C1.15338 12.8901 9.12171 20.8467 19.0734 21.465C20.3917 21.5467 21.4884 20.4501 21.4884 19.1317V17.1134C21.5 15.9351 20.6134 14.9434 19.435 14.8034Z" fill="#111111"/>
</svg>
