<svg width="28" height="21" viewBox="0 0 28 21" fill="none" xmlns="http://www.w3.org/2000/svg">
<path fill-rule="evenodd" clip-rule="evenodd" d="M17.595 9.35873C18.394 9.33134 19.3589 9.41459 20.2542 9.68311C21.119 9.94246 22.2463 10.0521 23.2665 10.0917C23.9563 10.1185 24.6216 10.1141 25.1639 10.096V11.8721C25.1639 12.0141 25.2103 12.1521 25.2963 12.2655C25.4239 12.434 25.5555 12.7155 25.6746 13.1083C25.7908 13.492 25.8828 13.94 25.9533 14.4086C26.0943 15.3464 26.1416 16.3164 26.1416 16.916C26.1416 17.1732 26.291 17.3957 26.5083 17.5025V19.4292H19.8806V18.4411C19.8806 18.2075 19.7553 17.9917 19.5518 17.8748C19.3483 17.7579 19.0975 17.7577 18.8937 17.8743C16.5165 19.2344 13.1266 19.6023 9.76501 19.4649C6.61611 19.3363 3.5917 18.7693 1.65311 18.2562C1.86517 18.2059 2.03919 18.0542 2.11643 17.8504C2.21697 17.585 2.52142 17.3186 3.02633 17.0989C3.50398 16.891 4.034 16.7817 4.36771 16.7468C4.93002 16.7089 6.31667 16.6575 7.43629 16.747C8.82237 16.8579 9.86618 16.248 10.2687 15.8617C10.2786 15.8522 10.2881 15.8424 10.2974 15.8324C11.2131 14.8363 12.6109 13.3249 13.828 12.0279C14.4369 11.3792 14.9987 10.786 15.4318 10.3383C15.6486 10.1141 15.8308 9.92903 15.9692 9.7926C16.1096 9.6543 16.1743 9.59726 16.1848 9.58799C16.1901 9.58521 16.2179 9.57012 16.2795 9.54845C16.3547 9.522 16.4579 9.49354 16.5894 9.46673C16.8522 9.41313 17.1967 9.37239 17.595 9.35873ZM27.4467 16.3239C27.4244 15.7164 27.3674 14.9598 27.2555 14.2153C27.1793 13.7084 27.0757 13.1945 26.9353 12.7312C26.822 12.3572 26.6758 11.9855 26.4805 11.6718V9.40885C26.4805 9.22756 26.4048 9.0544 26.2714 8.9307C26.138 8.807 25.9589 8.74385 25.7769 8.75633C25.2283 8.79394 24.2988 8.82272 23.318 8.78461C22.3255 8.74605 21.3344 8.64064 20.6347 8.43079C19.5745 8.11282 18.4616 8.02011 17.5496 8.05137C17.0924 8.06705 16.6729 8.11428 16.3247 8.18531C16.0044 8.25063 15.6566 8.35256 15.4139 8.52728C15.315 8.59844 15.1744 8.7334 15.0421 8.86373C14.8927 9.01094 14.7022 9.20467 14.4825 9.43178C14.0425 9.8866 13.4754 10.4855 12.865 11.1358C11.6511 12.4293 10.2596 13.934 9.34176 14.9322C9.15506 15.1014 8.4808 15.5182 7.54193 15.4431C6.3223 15.3456 4.85176 15.4024 4.26606 15.4426L4.24478 15.4444C3.80375 15.4889 3.12979 15.6258 2.49812 15.9006C1.97671 16.1275 1.37861 16.4948 1.03481 17.0766C0.79991 17.1688 0.535799 17.3271 0.358507 17.5933C0.200708 17.8303 0.133865 18.1241 0.200752 18.439C0.262835 18.7313 0.42952 18.9949 0.645716 19.2321C0.728783 19.3232 0.836014 19.3892 0.955109 19.4225C2.95351 19.9819 6.25558 20.6308 9.71092 20.772C12.7438 20.8959 15.9835 20.633 18.5639 19.5027V20.0832C18.5639 20.4445 18.8587 20.7373 19.2223 20.7373H27.1666C27.5302 20.7373 27.825 20.4445 27.825 20.0832V16.916C27.825 16.6543 27.6702 16.4285 27.4467 16.3239Z" fill="white"/>
<path fill-rule="evenodd" clip-rule="evenodd" d="M23.0625 17.6076C24.5796 17.5057 26.155 17.5187 27.1374 17.562C27.5006 17.5781 27.8082 17.2985 27.8243 16.9376C27.8404 16.5768 27.5591 16.2712 27.1958 16.2552C26.175 16.2101 24.5493 16.1966 22.9737 16.3025C22.1859 16.3554 21.3994 16.4389 20.7018 16.5663C20.0169 16.6913 19.3652 16.8676 18.8799 17.13C18.0096 17.6007 15.5964 18.3498 12.4438 18.5945C9.31074 18.8377 5.52599 18.5756 1.90618 17.0994C1.56982 16.9623 1.18523 17.122 1.04717 17.4562C0.909117 17.7903 1.06987 18.1724 1.40623 18.3096C5.26783 19.8843 9.27111 20.1528 12.5463 19.8986C15.802 19.6459 18.4173 18.8696 19.5093 18.279C19.8089 18.117 20.2958 17.9704 20.9398 17.8529C21.5711 17.7376 22.3039 17.6586 23.0625 17.6076Z" fill="white"/>
<path fill-rule="evenodd" clip-rule="evenodd" d="M11.5311 12.9512C11.1675 12.9512 10.8727 13.244 10.8727 13.6052C10.8727 14.0535 10.9099 14.7396 11.0279 15.3438C11.0861 15.6421 11.1711 15.9588 11.3022 16.2244C11.4179 16.4588 11.6591 16.8346 12.1186 16.9251C12.3584 16.9723 12.5834 16.928 12.7461 16.8821C12.9155 16.8343 13.0914 16.7623 13.255 16.6915C13.3388 16.6552 13.423 16.6177 13.5089 16.5795C13.7786 16.4594 14.0644 16.3322 14.4039 16.2131C15.2658 15.9106 16.4125 15.6877 17.9279 16.0715C18.0671 16.1068 18.2871 16.289 18.5538 16.7331C18.733 17.0316 18.8728 17.3383 19.0046 17.6273C19.4818 18.6741 20.3154 17.6273 20.2356 17.1551C20.0972 16.8516 19.9052 16.4304 19.6846 16.063C19.4046 15.5967 18.9488 14.9801 18.2532 14.8039C16.4291 14.342 15.0117 14.6125 13.9654 14.9796C13.5695 15.1185 13.2167 15.2758 12.9412 15.3986C12.8642 15.4329 12.7932 15.4645 12.729 15.4923C12.6174 15.5406 12.531 15.5755 12.4621 15.5996C12.4126 15.4833 12.3631 15.3132 12.3205 15.0947C12.2238 14.5994 12.1894 14.0027 12.1894 13.6052C12.1894 13.244 11.8946 12.9512 11.5311 12.9512ZM12.5271 15.7196C12.5271 15.7196 12.525 15.7163 12.5204 15.7115C12.5247 15.7176 12.5271 15.7196 12.5271 15.7196Z" fill="white"/>
<path fill-rule="evenodd" clip-rule="evenodd" d="M13.1224 0.191648C12.8507 -0.0406582 12.4419 -0.0143158 12.2027 0.25091L3.14092 10.2981C2.90906 10.5552 2.91819 10.947 3.16177 11.1932L4.54621 12.5921C4.67259 12.7198 4.84615 12.7905 5.02639 12.7876C5.20663 12.7846 5.37778 12.7084 5.4999 12.5767L14.8134 2.52947C14.9343 2.39906 14.9967 2.22549 14.9864 2.0485C14.976 1.87151 14.8938 1.70627 14.7586 1.59063L13.1224 0.191648Z" fill="white"/>
<path fill-rule="evenodd" clip-rule="evenodd" d="M12.4452 3.59483C12.7356 3.89319 13.242 4.28409 13.8707 4.55087C14.0659 4.6337 14.2779 4.70658 14.5028 4.76042L13.4763 5.90058C13.2902 5.76721 13.0654 5.59127 12.839 5.40478C12.5824 5.19342 12.3351 4.97788 12.1552 4.81106C12.064 4.72655 11.9973 4.66118 11.9569 4.61835L11.9559 4.61729C11.5168 3.88574 11.3666 5.26586 10.8187 5.28244L10.82 5.28469C10.8453 5.33012 10.8718 5.36633 10.8884 5.38809C10.9232 5.43355 10.9625 5.47705 10.996 5.51261C11.0658 5.58668 11.1571 5.67493 11.257 5.76751C11.4591 5.95487 11.7261 6.18736 11.9986 6.41179C12.1964 6.57472 12.4031 6.73844 12.5944 6.88011L11.6505 7.92848L10.0859 6.41559C9.47746 5.82725 9.51418 6.99251 9.16758 7.35303L10.7719 8.90433L9.81415 9.96808C9.71981 9.84581 9.61764 9.72483 9.51418 9.60875C9.08101 9.12275 8.53874 8.62719 8.1715 8.31787C7.52387 7.77239 8.07496 9.19027 7.32007 9.31569C7.65819 9.60048 8.15045 10.0519 8.52844 10.476C8.6998 10.6682 8.83084 10.8363 8.9137 10.9682L7.78266 12.2244C7.59514 11.5404 7.22622 10.7879 6.55286 10.1538C5.93666 9.57346 6.09996 11.1525 5.64705 11.1032C6.57724 11.9792 6.68335 13.2172 6.62262 13.6851C6.58573 13.9693 6.73939 14.2443 7.00171 14.3635C7.26403 14.4827 7.57391 14.4184 7.76622 14.2048L16.4656 4.54245C16.6618 4.32453 16.6886 4.00372 16.5313 3.75665C16.3739 3.50958 16.0706 3.39628 15.7884 3.47912C15.3213 3.61625 14.8371 3.53851 14.3879 3.34787C13.935 3.15569 13.5715 2.87022 13.3917 2.68547C12.8014 2.07908 13.3416 3.30366 12.4452 3.59483Z" fill="white"/>
</svg>
