<svg width="28" height="28" viewBox="0 0 28 28" fill="none" xmlns="http://www.w3.org/2000/svg">
<g clip-path="url(#clip0_187_2625)">
<path d="M23.4553 8.01637C23.4553 7.90907 23.4553 7.90639 23.3421 7.90639C23.0838 7.90415 22.826 7.88173 22.5711 7.83933C21.6395 7.69985 18.6263 6.09042 18.1158 3.44829C18.0552 3.12299 18.0139 2.79424 17.9921 2.46386C17.9921 2.33779 17.9921 2.33779 17.8711 2.3351H14.2474C14.0106 2.3351 14.0448 2.3056 14.0448 2.54969V18.1933C14.0488 18.3872 14.0356 18.5812 14.0053 18.7727C13.933 19.2228 13.7721 19.6533 13.5324 20.0384C13.2926 20.4234 12.979 20.7551 12.6102 21.0135C12.2415 21.2718 11.8253 21.4514 11.3867 21.5416C10.9481 21.6318 10.4961 21.6306 10.058 21.5382C9.79158 21.4736 9.53168 21.3838 9.28167 21.27L9.21851 21.2136C9.13463 21.1423 9.04677 21.0761 8.95536 21.0151C7.86326 20.2453 7.34484 19.175 7.50273 17.8365C7.66063 16.498 8.42904 15.5565 9.69219 15.0817C10.0686 14.9431 10.4692 14.8856 10.8685 14.9127C11.1282 14.9227 11.3859 14.9623 11.6369 15.0308C11.7238 15.0576 11.7711 15.0308 11.7764 14.9315V14.8323C11.7764 13.8961 11.7448 11.8522 11.7395 11.8468C11.7395 11.5786 11.7395 11.3103 11.7395 11.0421C11.7395 10.9643 11.7027 10.9509 11.6395 10.9428C10.5557 10.806 9.45559 10.9205 8.42123 11.2777C7.38687 11.6348 6.445 12.2255 5.6659 13.0056C4.39666 14.2673 3.63075 15.9634 3.51592 17.7668C3.45634 18.6795 3.56433 19.5956 3.83434 20.4679C4.27333 21.8922 5.12801 23.1461 6.28432 24.0623C6.39657 24.1683 6.52225 24.2586 6.658 24.3305L6.83695 24.4915C7.02892 24.6352 7.23326 24.7609 7.44747 24.867C8.72714 25.5311 10.1721 25.7908 11.5974 25.6127C13.429 25.4086 15.1126 24.4919 16.2974 23.0537C17.4382 21.7159 18.0581 19.998 18.0395 18.2255C18.0553 15.6289 18.0395 13.0324 18.0395 10.4466C18.0395 10.3849 18.0053 10.2964 18.0711 10.2642C18.1369 10.232 18.1763 10.3125 18.2263 10.3447C19.165 10.9771 20.2081 11.4314 21.3053 11.6859C21.9469 11.8412 22.6037 11.9222 23.2632 11.9273C23.4711 11.9273 23.5 11.9273 23.5 11.7046C23.5 10.7819 23.4526 8.26046 23.4553 8.01637Z" fill="#E7E7E7"/>
</g>
<defs>
<clipPath id="clip0_187_2625">
<rect width="28" height="28" fill="white"/>
</clipPath>
</defs>
</svg>
