<svg width="28" height="28" viewBox="0 0 28 28" fill="none" xmlns="http://www.w3.org/2000/svg">
<g clip-path="url(#clip0_187_2628)">
<path d="M25.6666 6.90947C24.8078 7.29001 23.8863 7.54809 22.9181 7.66331C23.9067 7.07132 24.6634 6.13234 25.0221 5.01692C24.0948 5.56514 23.0712 5.96321 21.9806 6.17901C21.1072 5.24731 19.8649 4.66699 18.487 4.66699C15.8436 4.66699 13.7002 6.81035 13.7002 9.45235C13.7002 9.82706 13.7425 10.193 13.8242 10.543C9.8466 10.3432 6.31956 8.43754 3.95896 5.5418C3.54632 6.24752 3.31158 7.06983 3.31158 7.94762C3.31158 9.60837 4.15726 11.0737 5.44036 11.931C4.65591 11.9048 3.91813 11.689 3.27223 11.3303V11.3901C3.27223 13.7084 4.92276 15.6432 7.11129 16.0836C6.71032 16.1915 6.2875 16.2513 5.85007 16.2513C5.54098 16.2513 5.24207 16.2207 4.94899 16.1623C5.55844 18.0651 7.32564 19.4488 9.41943 19.4867C7.78201 20.7698 5.71739 21.5324 3.47491 21.5324C3.08854 21.5324 2.70796 21.5091 2.33325 21.4668C4.45182 22.8272 6.96698 23.6204 9.67022 23.6204C18.4754 23.6204 23.2885 16.3271 23.2885 10.0021L23.2725 9.38239C24.2129 8.71163 25.0265 7.86889 25.6666 6.90947Z" fill="#E7E7E7"/>
</g>
<defs>
<clipPath id="clip0_187_2628">
<rect width="28" height="28" fill="white"/>
</clipPath>
</defs>
</svg>
